<?xml version="1.0" standalone="no"?><!DOCTYPE svg PUBLIC "-//W3C//DTD SVG 1.1//EN" "http://www.w3.org/Graphics/SVG/1.1/DTD/svg11.dtd"><svg t="1596166594036" class="icon" viewBox="0 0 1168 1024" version="1.1" xmlns="http://www.w3.org/2000/svg" p-id="1449" xmlns:xlink="http://www.w3.org/1999/xlink" width="228.125" height="200"><defs><style type="text/css"></style></defs><path d="M1158.161613 284.7232c-5.0176 0.1024 10.5472-84.7872-42.3936-159.8464-50.5856-76.6976-135.2704-93.184-133.4272-97.792-1.7408-5.9392 92.4672 2.6624 149.0944 87.04 57.9584 83.3536 31.6416 174.3872 26.7264 170.5984z m-53.5552 2.56c-4.1984 0 8.6016-69.5296-34.816-131.072-41.472-62.8736-110.8992-76.288-109.3632-80.1792-1.4336-4.9152 75.8784 2.2528 122.2656 71.3728 47.4112 68.4032 26.0096 142.9504 21.9136 139.8784z m-50.7904-8.6016c-2.9696 0 6.2464-50.176-24.9856-94.5152-29.9008-45.2608-79.9744-54.8864-78.848-57.7536-1.024-3.4816 54.6816 1.6384 88.1664 51.4048 34.0992 49.3568 18.6368 103.0144 15.6672 100.864z m-124.8256 102.6048a106.496 106.496 0 1 0-168.3456-65.3312l-328.2944 245.1456a46.49984 46.49984 0 0 0 55.6032 74.5472l328.2944-245.1456a106.6496 106.6496 0 0 0 112.7424-9.216z m-667.136-89.2928c-115.4048 82.2272-114.5856 281.3952 1.7408 444.7232s304.2304 229.2736 419.6352 147.0464c101.4784-72.2944 113.0496-235.008 35.2256-384.4096l-161.9968 120.9344 119.296 10.752a42.77248 42.77248 0 0 1 28.0576 37.888 19.10784 19.10784 0 0 1-27.136 19.3536l-184.32-21.2992c-0.6144 0.3072-1.4336 0.7168-2.1504 1.024l146.3296 109.8752c10.6496 14.9504 10.752 33.0752 0.2048 40.6528s-27.7504 1.4336-38.8096-13.6192l-152.6784-105.7792 50.3808 115.2c2.2528 14.9504-9.4208 23.4496-25.3952 18.944a58.24512 58.24512 0 0 1-36.4544-31.8464l-54.9888-109.7728-60.928 49.9712c-6.144 4.9152-21.0944-1.7408-32.4608-15.6672s-14.848-29.696-8.9088-34.5088l58.9824-48.5376-89.6-76.1856a64.72704 64.72704 0 0 1-14.7456-48.0256c1.7408-17.7152 12.288-25.6 22.7328-16.9984l86.6304 79.872-36.5568-180.5312c-7.4752-16.9984-6.3488-36.1472 4.3008-43.7248s27.4432-1.3312 35.9424 14.7456l38.5024 177.3568 58.88-186.1632a21.66784 21.66784 0 0 1 29.5936-20.2752 37.95968 37.95968 0 0 1 23.2448 39.8336l-37.1712 118.1696 169.472-126.5664c-114.5856-114.688-266.1376-152.6784-364.8512-82.432z m228.352 376.0128c0.7168-0.3072 1.536-0.7168 2.1504-1.024l-4.1984-0.512z m193.024 215.7568c-115.4048 82.2272-303.3088 16.384-419.6352-147.0464s-117.1456-362.496-1.7408-444.7232c98.7136-70.2464 250.2656-32.256 364.8512 82.432l50.3808-37.6832c-143.4624-152.6784-339.5584-205.6192-465.8176-115.712-143.0528 101.9904-142.1312 348.8768 2.1504 551.5264s377.344 284.16 520.3968 182.1696c129.536-92.2624 141.0048-303.4112 34.816-492.8512l-50.176 37.4784c77.824 149.4016 66.2528 312.1152-35.2256 384.4096z m-510.8736-68.5056a604.24192 604.24192 0 0 1-90.624-187.904 128.47104 128.47104 0 0 0-17.2032 9.5232c-74.4448 49.8688-86.2208 163.0208-26.2144 252.8256s168.96 122.1632 243.5072 72.3968a129.49504 129.49504 0 0 0 18.0224-14.4384 609.72032 609.72032 0 0 1-127.488-132.4032z m-116.6336 58.88c-75.4688-102.7072-25.8048-195.7888 16.7936-211.1488-46.4896 47.7184-46.4896 122.5728-16.7936 211.1488z" p-id="1450" fill="#8a8a8a"></path></svg>